<svg xmlns="http://www.w3.org/2000/svg" width="107.929" height="39.302" viewBox="0 0 107.929 39.302"><defs><style>.a{fill:#fff;}.b{fill:#753c8c;}.c{fill:#2d89c5;}</style></defs><g transform="translate(406 -1925)"><g transform="translate(-382.066 1925)"><path class="a" d="M53.388-770.919H48.5v-4.031L62.457-775v4.031H57.62l.05,14.209H53.438Z" transform="translate(-48.5 775)"/><path class="a" d="M80.9-774.95,93.4-775v4.031H85.233V-768H93.4v4.031H85.233v3.074H93.4v4.031l-12.446.1Z" transform="translate(-64.575 775)"/><path class="a" d="M110.9-775h4.484l6.853,10.934L122.187-775h4.132l.05,18.19h-4.182l-7.155-11.438.05,11.438H110.95Z" transform="translate(-79.458 775)"/></g><g transform="translate(-365.589 1945.558)"><path class="a" d="M81.2-733.7H93.646v4.081H85.533v3.225h8.112v4.031H85.533v6.853H81.2S81.2-733.7,81.2-733.7Z" transform="translate(-81.2 733.952)"/><path class="a" d="M110.2-724.828a9.29,9.29,0,0,1,9.221-9.372,9.3,9.3,0,0,1,9.271,9.372,9.269,9.269,0,0,1-9.271,9.372A9.259,9.259,0,0,1,110.2-724.828Zm14.159,0a4.979,4.979,0,0,0-4.938-5.089,4.938,4.938,0,0,0-4.888,5.089,4.938,4.938,0,0,0,4.888,5.089A4.948,4.948,0,0,0,124.359-724.828Z" transform="translate(-95.588 734.2)"/><path class="a" d="M151.1-722.565V-733.6h4.384v11.035c0,2.016,1.159,3.174,2.922,3.174a2.851,2.851,0,0,0,2.922-3.174V-733.6h4.384v11.035c0,4.736-2.872,7.407-7.306,7.407S151.1-717.879,151.1-722.565Z" transform="translate(-115.879 733.902)"/><path class="a" d="M185.4-733.7h7.76c4.384,0,6.8,2.822,6.8,6.248a6.034,6.034,0,0,1-2.922,5.341l3.376,6.6h-4.736l-2.57-5.442h-3.376v5.442H185.4V-733.7Zm4.283,3.981v4.837h3.124a2.428,2.428,0,0,0,2.721-2.469c0-1.512-.907-2.419-2.721-2.419h-3.124Z" transform="translate(-132.897 733.952)"/></g><path class="b" d="M23.725-736.05,8.911-721.236a4.623,4.623,0,0,1-6.55,0h0a4.623,4.623,0,0,1,0-6.55L17.174-742.6" transform="translate(-407 2683.925)"/><path class="b" d="M17.225-751.975,2.36-766.789a4.623,4.623,0,0,1,0-6.55h0a4.623,4.623,0,0,1,6.55,0l14.814,14.814" transform="translate(-407 2699.851)"/><path class="c" d="M29.975-743.94,26.7-740.664l3.275,3.275a4.623,4.623,0,0,0,6.55,0,4.623,4.623,0,0,0,0-6.55h0A4.622,4.622,0,0,0,29.975-743.94Z" transform="translate(-419.75 2685.265)"/></g></svg>