<svg xmlns="http://www.w3.org/2000/svg" width="203.128" height="55.576" viewBox="0 0 203.128 55.576"><defs><style>.a{fill:#fff;}.b{fill:none;stroke:#707070;}</style></defs><g transform="translate(-582.964 -83.301)"><g transform="translate(132.964 4.778)"><g transform="translate(450 96.586)"><path class="a" d="M76.636,27.132a3.81,3.81,0,0,0-.522-.3c-.153-.074-.288-.129-.39-.176a.151.151,0,0,0-.223.151,7.216,7.216,0,0,1-2.757,6.5,14.325,14.325,0,0,1-7.317,3.077h-.018q-.661.106-1.389.184a13.48,13.48,0,0,1-4.087-.183c-3.432-.737-5.577-2.833-3.731-4.474a.158.158,0,0,0-.2-.246c-2.324,1.7-1.288,3.006-.152,4.016a9.841,9.841,0,0,0,1.047.714c3.509,1.864,10.555,1.63,15.812.094.114-.034.228-.068.341-.1v0C78.654,34.655,82.444,31.232,76.636,27.132Z" transform="translate(-40.788 -22.155)"/><path class="a" d="M64.993,12.389c5.235,1.475,7.88,2.888,9.593,4.54,1.6,1.547,2.458,3.258,1.077,5.409-1.7,2.638-9.208,3.573-11.964,1.069a.157.157,0,0,0-.224.221c1.636,1.846,4.13,2.006,6.341,2,11.937-.028,15.394-14.8-3.566-13.715a9.012,9.012,0,0,0-1.241.167A.155.155,0,0,0,64.993,12.389Z" transform="translate(-46.934 -11.857)"/><path class="a" d="M17.284,20.33a37.165,37.165,0,0,1,12.422-2.044,19.731,19.731,0,0,1,9.832,2.288c3.335,1.951,1.6,5.754-4.184,5.74a.158.158,0,1,0-.008.315c3.818.183,5.347-.837,6.477-1.863,3.055-2.775-1.476-6.43-7.123-8.163-5.793-1.778-13.33-1.794-17.248,2.842a1.717,1.717,0,0,0-.261.408c-.049.108-.074.2-.1.269A.151.151,0,0,0,17.284,20.33Z" transform="translate(-14.628 -14.395)"/><path class="a" d="M15.8,31.214c1.778-1.493,4.284-2.79,8.724-3.262,5.712-.606,10.3,2.447,7.818,4.658a.158.158,0,0,0,.2.245c2.324-1.7,1.288-3.005.151-4.016-2.939-2.614-11.007-2.517-16.858-.807-5.375,1.57-9.264,4.685-5.04,8.471h0a12.163,12.163,0,0,0,1.114.88,4.057,4.057,0,0,0,.513.33,2.535,2.535,0,0,0,.39.175.169.169,0,0,0,.232-.174,10.8,10.8,0,0,1,0-1.211h-.008l.008-.005A7.02,7.02,0,0,1,15.8,31.214Z" transform="translate(-9 -22.274)"/><path class="a" d="M69.414,44.022c-.07.022-.139.044-.209.07h-.016a36.912,36.912,0,0,1-12.2,1.974,20.413,20.413,0,0,1-9.25-1.967h0c-.195-.1-.387-.209-.579-.321-3.335-1.951-1.6-5.754,4.184-5.741a.157.157,0,1,0,.008-.315c-3.818-.184-5.347.836-6.477,1.863-1.54,1.4-1.153,3.021.335,4.513h0A17.116,17.116,0,0,0,52,47.749c5.793,1.778,13.33,1.794,17.248-2.842a1.716,1.716,0,0,0,.261-.407c.048-.108.074-.2.1-.269a.174.174,0,0,0,0-.131A.152.152,0,0,0,69.414,44.022Z" transform="translate(-33.317 -29.869)"/><path class="a" d="M43.648,45.938c-5.235-1.475-7.881-2.888-9.593-4.54a9.225,9.225,0,0,1-.732-.786v0a3.57,3.57,0,0,1-.345-4.621c1.7-2.638,9.208-3.573,11.964-1.069a.158.158,0,0,0,.224-.221c-1.636-1.846-4.13-2.006-6.342-2-6.326.015-10.27,4.172-9.759,7.914.454,3.32,4.413,6.313,13.325,5.8a9.12,9.12,0,0,0,1.241-.168A.155.155,0,0,0,43.648,45.938Z" transform="translate(-22.954 -26.381)"/><path class="a" d="M156.821,30.994a3.362,3.362,0,0,1-3.332,2.144c-2.2,0-3.125-1.246-2.633-3.554A4.023,4.023,0,0,1,155,26.012c1.722,0,2.543.879,2.361,2.51h5.862c.619-3.774-1.97-5.9-7.5-5.9-5.9,0-9.41,2.382-10.383,6.962s1.525,6.961,7.423,6.961c5.276,0,8.671-1.924,9.974-5.551Z" transform="translate(-103.88 -19.36)"/><path class="a" d="M471.475,22.622c-5.9,0-9.409,2.382-10.383,6.962s1.525,6.961,7.424,6.961,9.41-2.381,10.383-6.961S477.374,22.622,471.475,22.622Zm1.72,6.962a4,4,0,0,1-4.144,3.554c-2.2,0-3.125-1.246-2.634-3.554a4.023,4.023,0,0,1,4.148-3.572C472.763,26.012,473.685,27.275,473.195,29.584Z" transform="translate(-323.939 -19.36)"/><path class="a" d="M531.3,23.772l-1.619,7.621-3.492-7.621h-6.064L517.311,37h4.836l1.647-7.749L527.7,37h5.753l2.812-13.226Z" transform="translate(-363.263 -20.161)"/><path class="a" d="M422.859,27.325a2.573,2.573,0,0,0-.909-2.875c-.734-.513-2.146-.678-4.234-.678H407.64L404.829,37h5.2l.857-4.029h3.059c1.264,0,1.67.329,1.57,1.319-.109,1.117-.495,2.07-.228,2.711h5.7l.043-.2c-.556-.312-.327-1.393-.013-3.3.246-1.5.237-2.235-1.049-2.821A4.521,4.521,0,0,0,422.859,27.325ZM417,28.278c-.2.953-.972,1.21-2.382,1.21h-2.986l.5-2.364h2.858C416.491,27.124,417.211,27.271,417,28.278Z" transform="translate(-284.87 -20.161)"/><path class="a" d="M304.057,22.971H289.346l-.4,1.889c-.8-1.552-3.172-2.237-7.159-2.237-5.166,0-7.882,1.228-8.524,4.251-.471,2.217.856,3.554,3.944,3.938l3.728.476c1.2.146,1.73.477,1.61,1.045-.136.641-.9.952-2.272.952-1.41,0-2.127-.422-2.071-1.117h-6.21a4.1,4.1,0,0,0-.073.622h-9.192l.37-1.74h7.2l.693-3.261h-7.2l.335-1.575h8.885l.689-3.243H259.683L256.872,36.2h14.453l.61-2.871c.237,2.086,2.526,3.275,6.806,3.275,6.082,0,9.291-1.392,10-4.708.463-2.179-.715-3.444-3.539-3.866l-4.531-.659c-1.28-.182-1.886-.348-1.762-.934.109-.513.828-.879,2.037-.879,1.594,0,2.361.439,2.314,1.264h5.955a4.569,4.569,0,0,0,.04-.495h4.164l-2.1,9.874h5.13l2.1-9.874h4.8Z" transform="translate(-181.753 -19.36)"/><path class="a" d="M219.7,27.325a2.574,2.574,0,0,0-.91-2.875c-.734-.513-2.146-.678-4.234-.678H204.483L201.672,37h5.2l.857-4.029h3.059c1.264,0,1.67.329,1.57,1.319-.109,1.117-.495,2.07-.228,2.711h5.7l.043-.2c-.556-.312-.327-1.393-.014-3.3.246-1.5.237-2.235-1.049-2.821A4.52,4.52,0,0,0,219.7,27.325Zm-5.863.953c-.2.953-.972,1.21-2.383,1.21h-2.985l.5-2.364h2.858C213.333,27.124,214.053,27.271,213.839,28.278Z" transform="translate(-143.281 -20.161)"/><path class="a" d="M579.12,59.8c0-.355-.211-.513-.636-.513H577.8v1.8h.272v-.782h.314l.475.782h.307l-.513-.794A.47.47,0,0,0,579.12,59.8Zm-1.05.277v-.558h.372c.19,0,.393.042.393.264,0,.277-.207.293-.439.293Z" transform="translate(-405.42 -44.915)"/><path class="a" d="M576.136,57.11a1.563,1.563,0,1,0,1.579,1.559A1.561,1.561,0,0,0,576.136,57.11Zm0,2.866a1.3,1.3,0,1,1,1.265-1.307A1.264,1.264,0,0,1,576.136,59.976Z" transform="translate(-403.154 -43.396)"/></g><path class="b" d="M779.346,183.047V127.471" transform="translate(-126.719 -48.948)"/></g></g></svg>