<svg xmlns="http://www.w3.org/2000/svg" width="210.087" height="57.485" viewBox="0 0 210.087 57.485"><defs><style>.a{fill:#004980;}.b{fill:none;stroke:#707070;}</style></defs><g transform="translate(-223.571 -1590.286)"><g transform="translate(223.571 1590.286)"><g transform="translate(0 18.101)"><path class="a" d="M77.393,27.15a3.942,3.942,0,0,0-.54-.315c-.159-.077-.3-.134-.4-.182a.156.156,0,0,0-.231.156,7.463,7.463,0,0,1-2.852,6.725A14.817,14.817,0,0,1,65.8,36.716h-.019q-.684.11-1.437.19a13.943,13.943,0,0,1-4.227-.189c-3.549-.762-5.769-2.931-3.859-4.628a.163.163,0,0,0-.2-.255c-2.4,1.761-1.332,3.109-.157,4.154a10.181,10.181,0,0,0,1.083.738c3.629,1.928,10.918,1.686,16.355.1.118-.035.236-.071.353-.1v0C79.479,34.931,83.4,31.39,77.393,27.15Z" transform="translate(-40.313 -22.002)"/><path class="a" d="M65.047,12.408c5.415,1.525,8.151,2.987,9.922,4.7,1.658,1.6,2.543,3.369,1.114,5.594-1.753,2.728-9.525,3.7-12.375,1.106a.163.163,0,0,0-.232.229c1.692,1.91,4.272,2.075,6.559,2.07,12.347-.029,15.923-15.313-3.688-14.186a9.322,9.322,0,0,0-1.284.173A.16.16,0,0,0,65.047,12.408Z" transform="translate(-46.368 -11.857)"/><path class="a" d="M17.291,20.5A38.441,38.441,0,0,1,30.14,18.382a20.408,20.408,0,0,1,10.169,2.366c3.45,2.018,1.654,5.952-4.328,5.937a.163.163,0,1,0-.008.326c3.949.19,5.53-.866,6.7-1.927,3.16-2.87-1.526-6.65-7.368-8.443-5.992-1.839-13.787-1.856-17.84,2.94a1.776,1.776,0,0,0-.27.422c-.05.112-.076.205-.105.278A.156.156,0,0,0,17.291,20.5Z" transform="translate(-14.544 -14.357)"/><path class="a" d="M16.031,31.365c1.839-1.544,4.431-2.886,9.023-3.374,5.908-.627,10.658,2.532,8.086,4.818a.163.163,0,0,0,.2.254c2.4-1.761,1.332-3.109.156-4.154-3.04-2.7-11.385-2.6-17.437-.835-5.559,1.624-9.583,4.846-5.213,8.762h0a12.58,12.58,0,0,0,1.153.91,4.2,4.2,0,0,0,.531.341,2.623,2.623,0,0,0,.4.181.174.174,0,0,0,.24-.18,11.167,11.167,0,0,1,0-1.253h-.009l.009-.006A7.261,7.261,0,0,1,16.031,31.365Z" transform="translate(-9 -22.118)"/><path class="a" d="M70.291,44.24c-.072.022-.144.046-.216.072h-.017a38.18,38.18,0,0,1-12.616,2.042,21.114,21.114,0,0,1-9.567-2.035h0c-.2-.106-.4-.216-.6-.332-3.45-2.018-1.654-5.952,4.327-5.938a.163.163,0,1,0,.008-.326c-3.949-.191-5.53.865-6.7,1.927-1.593,1.448-1.192,3.125.346,4.668h.005a17.7,17.7,0,0,0,7.017,3.775c5.992,1.839,13.787,1.856,17.84-2.94a1.775,1.775,0,0,0,.27-.421c.05-.112.076-.205.105-.278a.18.18,0,0,0,0-.135A.157.157,0,0,0,70.291,44.24Z" transform="translate(-32.954 -29.6)"/><path class="a" d="M44.151,46.392c-5.415-1.526-8.151-2.987-9.923-4.7a9.543,9.543,0,0,1-.757-.813v0a3.692,3.692,0,0,1-.357-4.779c1.754-2.728,9.525-3.7,12.375-1.106a.163.163,0,0,0,.232-.229c-1.692-1.91-4.272-2.075-6.56-2.07-6.543.015-10.623,4.315-10.094,8.186.469,3.434,4.565,6.53,13.783,6a9.432,9.432,0,0,0,1.284-.173A.16.16,0,0,0,44.151,46.392Z" transform="translate(-22.745 -26.164)"/><path class="a" d="M157.223,31.282a3.477,3.477,0,0,1-3.446,2.217c-2.274,0-3.232-1.288-2.724-3.676s2.016-3.695,4.29-3.695c1.781,0,2.63.909,2.442,2.6h6.063c.64-3.9-2.037-6.1-7.76-6.1-6.1,0-9.733,2.464-10.74,7.2s1.577,7.2,7.678,7.2c5.457,0,8.969-1.99,10.316-5.741Z" transform="translate(-102.463 -19.248)"/><path class="a" d="M471.839,22.622c-6.1,0-9.732,2.464-10.74,7.2s1.577,7.2,7.679,7.2,9.733-2.463,10.739-7.2S477.94,22.622,471.839,22.622Zm1.779,7.2a4.142,4.142,0,0,1-4.287,3.676c-2.274,0-3.232-1.288-2.724-3.676s2.017-3.695,4.291-3.695S474.125,27.435,473.618,29.823Z" transform="translate(-319.236 -19.248)"/><path class="a" d="M531.776,23.772,530.1,31.655l-3.612-7.883h-6.272l-2.908,13.68h5l1.7-8.015,4.037,8.015H534l2.909-13.68Z" transform="translate(-357.973 -20.037)"/><path class="a" d="M423.479,27.447a2.661,2.661,0,0,0-.94-2.974c-.759-.531-2.22-.7-4.379-.7H407.737l-2.908,13.68h5.381l.886-4.168h3.164c1.308,0,1.727.341,1.624,1.364-.113,1.155-.512,2.141-.235,2.8h5.892l.044-.208c-.575-.323-.338-1.441-.014-3.411.255-1.554.245-2.312-1.085-2.917A4.676,4.676,0,0,0,423.479,27.447Zm-6.065.986c-.21.985-1,1.251-2.464,1.251h-3.088l.519-2.445h2.956C416.891,27.239,417.636,27.391,417.414,28.433Z" transform="translate(-280.75 -20.037)"/><path class="a" d="M305.678,22.982H290.462l-.415,1.954c-.827-1.6-3.281-2.314-7.405-2.314-5.344,0-8.153,1.27-8.817,4.4-.487,2.293.885,3.676,4.079,4.073l3.856.492c1.237.151,1.79.493,1.665,1.081-.14.663-.93.985-2.35.985-1.459,0-2.2-.436-2.142-1.155H272.51a4.23,4.23,0,0,0-.075.644h-9.508l.382-1.8h7.447l.717-3.373h-7.446l.346-1.629h9.19l.713-3.354h-14.5l-2.908,13.68h14.95l.631-2.97c.245,2.158,2.613,3.387,7.039,3.387,6.291,0,9.61-1.44,10.339-4.869.479-2.254-.74-3.563-3.66-4l-4.686-.682c-1.324-.189-1.951-.36-1.822-.966.113-.531.857-.91,2.107-.91,1.649,0,2.442.455,2.393,1.307h6.159a4.752,4.752,0,0,0,.041-.512h4.307L292.5,36.663h5.306l2.171-10.213h4.965Z" transform="translate(-179.173 -19.248)"/><path class="a" d="M220.322,27.447a2.662,2.662,0,0,0-.941-2.974c-.759-.531-2.22-.7-4.379-.7H204.579l-2.907,13.68h5.381l.887-4.168H211.1c1.307,0,1.727.341,1.623,1.364-.113,1.155-.512,2.141-.236,2.8h5.892l.045-.208c-.576-.323-.338-1.441-.014-3.411.255-1.554.245-2.312-1.085-2.917A4.675,4.675,0,0,0,220.322,27.447Zm-6.065.986c-.209.985-1,1.251-2.464,1.251H208.7l.519-2.445h2.956C213.734,27.239,214.479,27.391,214.257,28.433Z" transform="translate(-141.276 -20.037)"/><path class="a" d="M579.166,59.821c0-.368-.218-.531-.658-.531h-.71v1.866h.282v-.808h.325l.492.808h.317l-.531-.821A.486.486,0,0,0,579.166,59.821Zm-1.086.286V59.53h.385c.2,0,.407.043.407.273,0,.287-.214.3-.454.3Z" transform="translate(-399.499 -44.422)"/><path class="a" d="M576.19,57.11a1.616,1.616,0,1,0,1.634,1.612A1.615,1.615,0,0,0,576.19,57.11Zm0,2.964a1.348,1.348,0,1,1,1.309-1.352A1.308,1.308,0,0,1,576.19,60.074Z" transform="translate(-397.267 -42.925)"/></g><path class="b" d="M779.346,184.956V127.471" transform="translate(-569.76 -127.471)"/></g></g></svg>