<svg xmlns="http://www.w3.org/2000/svg" width="69.6" height="71.7" viewBox="0 0 69.6 71.7"><defs><style>.a{fill:#fff;}</style></defs><path class="a" d="M7.2,33.6H1.1a1.1,1.1,0,1,0,0,2.2H7.2a1.1,1.1,0,1,0,0-2.2Z"/><path class="a" d="M68.5,33.6H62.4a1.1,1.1,0,0,0,0,2.2h6.1a1.1,1.1,0,0,0,0-2.2Z"/><path class="a" d="M34.8,8.3a1.11,1.11,0,0,0,1.1-1.1V1.1a1.1,1.1,0,1,0-2.2,0V7.2A1.11,1.11,0,0,0,34.8,8.3Z"/><path class="a" d="M57.8,10.1l-4.3,4.3a1.217,1.217,0,0,0,0,1.6,1.217,1.217,0,0,0,1.6,0l4.3-4.3a1.217,1.217,0,0,0,0-1.6A1.04,1.04,0,0,0,57.8,10.1Z"/><path class="a" d="M15.3,16.4a1.136,1.136,0,0,0,.8-.3,1.217,1.217,0,0,0,0-1.6l-4.3-4.4a1.217,1.217,0,0,0-1.6,0,1.217,1.217,0,0,0,0,1.6L14.5,16A1.234,1.234,0,0,0,15.3,16.4Z"/><path class="a" d="M34.8,19.8A14.25,14.25,0,1,0,49.1,34,14.3,14.3,0,0,0,34.8,19.8Zm0,26.2a12,12,0,1,1,12-12A12.035,12.035,0,0,1,34.8,46Z"/><path class="a" d="M53.8,29.7l2-4.8a1.388,1.388,0,0,0,0-.9,1.057,1.057,0,0,0-.7-.6l-5-1.5-.3-5.2a1.234,1.234,0,0,0-.4-.8,1.02,1.02,0,0,0-.9-.2l-5.2.8-2.5-4.6a1.344,1.344,0,0,0-.7-.6,1.02,1.02,0,0,0-.9.2l-4.3,3-4.3-3a1.02,1.02,0,0,0-.9-.2,1.057,1.057,0,0,0-.7.6l-2.7,4.6-5.2-.9a1.02,1.02,0,0,0-.9.2.909.909,0,0,0-.4.8l-.3,5.2-5,1.5a1.057,1.057,0,0,0-.7.6,1.388,1.388,0,0,0,0,.9l2,4.8-3.9,3.5a1.234,1.234,0,0,0-.4.8.909.909,0,0,0,.4.8l3.9,3.5-2,4.8a1.387,1.387,0,0,0,0,.9,1.057,1.057,0,0,0,.7.6l5,1.5.2,3.5L14.1,61.4,13,64.1a1.063,1.063,0,0,0,.2,1.2,1.247,1.247,0,0,0,1.2.3l9-2.8,4.9,8.3a1.149,1.149,0,0,0,1.1.6,1.2,1.2,0,0,0,1-.7L35,59.6,39.6,71a1.087,1.087,0,0,0,1,.7h.1a1.1,1.1,0,0,0,1-.6l4.9-8.3,9,2.8a1.314,1.314,0,0,0,1.2-.3,1.063,1.063,0,0,0,.2-1.2l-1.1-2.6L50,48.9c0-.1-.1-.1-.1-.2l.2-2.6,5-1.5a1.057,1.057,0,0,0,.7-.6,1.388,1.388,0,0,0,0-.9l-2-4.8,3.9-3.5a1.234,1.234,0,0,0,.4-.8.909.909,0,0,0-.4-.8Zm0,32.7.2.5-7.6-2.3a1.142,1.142,0,0,0-1.3.5l-4.2,7.1L36.1,56.3a1.214,1.214,0,0,0-2.2,0L29.1,68.2l-4.2-7.1a1.027,1.027,0,0,0-1.3-.5L16,62.9l5-10.5h.2l5.2-.9,2.5,4.6a1.344,1.344,0,0,0,.7.6,1.02,1.02,0,0,0,.9-.2l4.3-3,4.3,3a1.445,1.445,0,0,0,.7.2h.3a1.057,1.057,0,0,0,.7-.6l2.5-4.6,5.2.9a1.7,1.7,0,0,0,.7-.1ZM51.7,37.2a1.06,1.06,0,0,0-.3,1.3l1.8,4.4-4.6,1.3a.974.974,0,0,0-.8,1L47.5,50l-4.7-.8a1.074,1.074,0,0,0-1.2.6L39.3,54l-3.9-2.7a1.051,1.051,0,0,0-1.3,0L30.2,54l-2.3-4.2a1.1,1.1,0,0,0-1-.6h-.2L22,50l-.2-4.8a1.077,1.077,0,0,0-.8-1l-4.6-1.3,1.8-4.4a1.091,1.091,0,0,0-.3-1.3L14.4,34l3.5-3.2a1.06,1.06,0,0,0,.3-1.3l-1.8-4.4L21,23.8a.974.974,0,0,0,.8-1l.3-4.8,4.7.8a1.074,1.074,0,0,0,1.2-.6L30.3,14l3.9,2.7a1.051,1.051,0,0,0,1.3,0L39.4,14l2.3,4.2a1.141,1.141,0,0,0,1.2.6l4.7-.8.3,4.8a1.077,1.077,0,0,0,.8,1l4.6,1.3-1.8,4.4a1.091,1.091,0,0,0,.3,1.3L55.3,34Z"/></svg>