<svg xmlns="http://www.w3.org/2000/svg" width="71.3" height="80" viewBox="0 0 71.3 80"><defs><style>.a{fill:#fff;fill-rule:evenodd;}</style></defs><path class="a" d="M71.3,23.9V17.3l-5.4-1.7a14.46,14.46,0,0,0-.9-2.2l2.7-5L63,3.7,58,6.4a10.2,10.2,0,0,0-2.2-.9L54,0H47.4L45.7,5.4a14.461,14.461,0,0,0-2.2.9l-5-2.7L33.8,8.3l2.7,5a10.2,10.2,0,0,0-.9,2.2l-5.4,1.7v6.6l5.4,1.7a14.461,14.461,0,0,0,.9,2.2l-2.7,5L37,35.9l-3.2,1.7c-.9-.4-1.8-.8-2.7-1.1l-2-6.6H21l-2,6.6c-.9.3-1.8.7-2.7,1.1l-6.1-3.2L4.5,40.1l3.2,6.1c-.4.9-.8,1.8-1.1,2.7L0,50.9V59l6.6,2c.3.9.7,1.8,1.1,2.7L4.5,69.8l5.7,5.7,6.1-3.2c.9.4,1.8.8,2.7,1.1L21,80h8.1l2-6.6c.9-.3,1.8-.7,2.7-1.1l6.1,3.2,5.7-5.7-3.2-6.1c.4-.9.8-1.8,1.1-2.7l6.6-2V51l-6.6-2c-.3-.9-.7-1.8-1.1-2.7l3.2-6.1L41.3,36l2.1-1.1a10.2,10.2,0,0,0,2.2.9l1.7,5.4h6.6l1.7-5.4a14.461,14.461,0,0,0,2.2-.9l5,2.7,4.7-4.7-2.7-5a10.2,10.2,0,0,0,.9-2.2ZM43,40.5l-3,5.8a16.316,16.316,0,0,1,1.8,4.3L48,52.5v5l-6.2,1.9A16.317,16.317,0,0,1,40,63.7l3,5.7L39.4,73l-5.7-3a16.316,16.316,0,0,1-4.3,1.8L27.5,78h-5l-1.9-6.2A16.317,16.317,0,0,1,16.3,70l-5.7,3L7,69.5l3-5.7a16.317,16.317,0,0,1-1.8-4.3L2,57.6v-5l6.2-1.9A16.316,16.316,0,0,1,10,46.4L7,40.7l3.6-3.5,5.7,3a16.316,16.316,0,0,1,4.3-1.8l1.9-6.2h5l1.9,6.2a16.317,16.317,0,0,1,4.3,1.8l4.7-2.5,1-.5ZM62.8,28.2l.9,1.6,1.4,2.6L62.5,35l-2.6-1.4-1.6-.9-.4-.2a13.982,13.982,0,0,1-3.8,1.6l-.1.5-.5,1.8-.9,2.8H49l-.9-2.8-.6-1.8-.1-.5a11.768,11.768,0,0,1-3.8-1.6l-.4.2-1.6.9-1.6.8-1,.5-2.5-2.5,1.4-2.6.9-1.6.2-.4A13.982,13.982,0,0,1,37.4,24l-.5-.1-1.8-.6-2.8-.9V18.8l2.8-.9,1.8-.5.5-.1A13.365,13.365,0,0,1,39,13.4l-.5-.4-.9-1.7L36.2,8.7l2.5-2.5,2.6,1.4,1.6.9.4.2a13.365,13.365,0,0,1,3.9-1.6l.1-.5.6-1.8L48.8,2h3.6l.8,2.8.6,1.8.1.5a11.767,11.767,0,0,1,3.8,1.6l.4-.2,1.6-.9,2.6-1.4,2.5,2.5-1.4,2.6L62.8,13l-.2.4a13.982,13.982,0,0,1,1.6,3.8l.5.1,1.8.6,2.8.8v3.6l-2.8.9-1.9.6-.5.1a13.365,13.365,0,0,1-1.6,3.9Z"/><path class="a" d="M25,45.9A9.1,9.1,0,1,0,34.1,55,9.133,9.133,0,0,0,25,45.9ZM25,62a7.1,7.1,0,1,1,7.1-7.1A7.127,7.127,0,0,1,25,62Z"/><path class="a" d="M50.7,13.1a7.5,7.5,0,1,0,7.5,7.5A7.555,7.555,0,0,0,50.7,13.1Zm0,12.9a5.4,5.4,0,1,1,5.4-5.4A5.378,5.378,0,0,1,50.7,26Z"/></svg>