<svg xmlns="http://www.w3.org/2000/svg" width="1161.068" height="163.105" viewBox="0 0 1161.068 163.105"><defs><style>.a{fill:#0242ba;}</style></defs><g transform="translate(0 73.949)"><g transform="translate(0 -73.949)"><path class="a" d="M620.365,0,509.558,110.807,398.753,0l-.088.088L398.576,0l-110.8,110.807L176.967,0l-.09.088L176.79,0,65.983,110.807-44.824,0l-.088.088L-45,0l-110.8,110.807L-266.613,0l-.088.088L-266.789,0l-110.8,110.807L-488.4,0l-26.15,26.152,136.957,136.953L-266.7,52.214l110.891,110.891,110.9-110.891,110.9,110.891L176.876,52.214l110.9,110.891L398.665,52.214,509.558,163.105,646.517,26.152Z" transform="translate(514.551)"/></g></g></svg>