<svg xmlns="http://www.w3.org/2000/svg" width="99.57" height="708.792" viewBox="0 0 99.57 708.792"><defs><style>.a{fill:#ff4042;}</style></defs><g transform="translate(25.62 0) rotate(90)"><g transform="translate(0 -73.949)"><path class="a" d="M178.276,0,110.632,67.644,42.989,0l-.054.054L42.882,0-24.761,67.644-92.4,0l-.055.054L-92.511,0l-67.644,67.644L-227.8,0l-.054.054L-227.908,0l-67.643,67.644L-363.193,0l-.054.054L-363.3,0l-67.643,67.644L-498.587,0l-15.964,15.965,83.608,83.6,67.7-67.7,67.695,67.7,67.7-67.7,67.7,67.7,67.7-67.7,67.7,67.7,67.7-67.7,67.7,67.7,83.609-83.6Z" transform="translate(514.551)"/></g></g></svg>