<svg xmlns="http://www.w3.org/2000/svg" width="71" height="52.188" viewBox="0 0 71 52.188"><defs><style>.a{fill:#fff;}</style></defs><g transform="translate(0 0.085)"><path class="a" d="M47.309,15.482a6.711,6.711,0,0,1,4.881-2.108h7.766a6.8,6.8,0,0,1,4.881,2.108,11.768,11.768,0,0,1,1.165-2,8.474,8.474,0,0,0-4.992-2.274,6.673,6.673,0,1,0-9.818,0A8.822,8.822,0,0,0,46.2,13.486,8.763,8.763,0,0,1,47.309,15.482ZM56.073,2.225a4.438,4.438,0,1,1-4.438,4.438A4.451,4.451,0,0,1,56.073,2.225Z" transform="translate(-20.573 -0.045)"/><path class="a" d="M99.639,11.111a6.673,6.673,0,1,0-9.818,0A8.916,8.916,0,0,0,82,19.154a8.8,8.8,0,0,1,3.162-2.718,6.848,6.848,0,0,1,5.713-3.162h7.766a6.676,6.676,0,0,1,6.656,6.656v9.984h-3.328V26.587a1.109,1.109,0,0,0-2.219,0v2.219a13.553,13.553,0,0,1,1.609,1.5c.055.055.111.166.222.222a3.048,3.048,0,0,1,.388.5,7.617,7.617,0,0,1,.721,1.109H105.3a2.225,2.225,0,0,0,2.219-2.219V19.931A8.921,8.921,0,0,0,99.639,11.111Zm-4.881-8.93A4.438,4.438,0,1,1,90.32,6.618,4.451,4.451,0,0,1,94.758,2.181Z" transform="translate(-36.516 0)"/><path class="a" d="M5.991,30.546c.055-.055.111-.166.222-.222a10.3,10.3,0,0,1,1.609-1.5V26.607a1.109,1.109,0,0,0-2.219,0v3.328H2.219V19.951a6.676,6.676,0,0,1,6.656-6.656h7.766A6.682,6.682,0,0,1,22.3,16.457a8.8,8.8,0,0,1,3.162,2.718,8.916,8.916,0,0,0-7.821-8.043,6.634,6.634,0,1,0-9.763.055A8.826,8.826,0,0,0,0,19.951v9.984a2.225,2.225,0,0,0,2.219,2.219H4.826c.222-.388.5-.777.721-1.109C5.713,30.879,5.824,30.712,5.991,30.546ZM12.758,2.2A4.438,4.438,0,1,1,8.32,6.639,4.451,4.451,0,0,1,12.758,2.2Z" transform="translate(0 -0.02)"/><path class="a" d="M93.157,43.111a6.673,6.673,0,1,0-9.818,0A8.45,8.45,0,0,0,79.9,44.276a11.3,11.3,0,0,1,2.163,1.442,6.329,6.329,0,0,1,2.274-.388H92.1a6.676,6.676,0,0,1,6.656,6.656v9.984H95.431V58.643a1.109,1.109,0,0,0-2.219,0v3.328H86.057V64.19H98.815a2.225,2.225,0,0,0,2.219-2.219V51.931A8.921,8.921,0,0,0,93.157,43.111Zm-4.881-8.93a4.438,4.438,0,1,1-4.437,4.438A4.451,4.451,0,0,1,88.276,34.181Z" transform="translate(-35.58 -14.25)"/><path class="a" d="M18.875,45.23h7.766a7.823,7.823,0,0,1,2.274.388,11.3,11.3,0,0,1,2.163-1.442,9.366,9.366,0,0,0-3.439-1.165,6.673,6.673,0,1,0-9.818,0A9.016,9.016,0,0,0,10,51.886v9.984a2.225,2.225,0,0,0,2.219,2.219H24.977V61.871H17.766V58.543a1.109,1.109,0,0,0-2.219,0v3.328H12.219V51.886A6.676,6.676,0,0,1,18.875,45.23Zm3.883-11.094a4.438,4.438,0,1,1-4.438,4.438A4.451,4.451,0,0,1,22.758,34.136Z" transform="translate(-4.453 -14.205)"/><path class="a" d="M58.639,47.111a6.673,6.673,0,1,0-9.818,0A8.919,8.919,0,0,0,41,55.931v9.984a2.225,2.225,0,0,0,2.219,2.219H64.3a2.225,2.225,0,0,0,2.219-2.219V55.931A8.921,8.921,0,0,0,58.639,47.111Zm-4.881-8.93a4.438,4.438,0,1,1-4.437,4.438A4.451,4.451,0,0,1,53.758,38.181ZM64.3,65.915H60.969V62.587a1.109,1.109,0,0,0-2.219,0v3.328H48.766V62.587a1.109,1.109,0,0,0-2.219,0v3.328H43.219V55.931a6.676,6.676,0,0,1,6.656-6.656h7.766A6.676,6.676,0,0,1,64.3,55.931Z" transform="translate(-18.258 -16.031)"/></g></svg>